<?xml version="1.0" standalone="no"?>
<!DOCTYPE svg PUBLIC "-//W3C//DTD SVG 20010904//EN"
 "http://www.w3.org/TR/2001/REC-SVG-20010904/DTD/svg10.dtd">
<svg version="1.0" xmlns="http://www.w3.org/2000/svg"
 width="681.000000pt" height="681.000000pt" viewBox="0 0 681.000000 681.000000"
 preserveAspectRatio="xMidYMid meet">
<metadata>
Created by potrace 1.14, written by Peter Selinger 2001-2017
</metadata>
<g transform="translate(0.000000,681.000000) scale(0.100000,-0.100000)"
fill="#000000" stroke="none">
<path d="M3228 6795 c-2 -2 -41 -6 -88 -9 -110 -8 -238 -24 -316 -40 -12 -2
-37 -7 -55 -10 -19 -3 -65 -12 -104 -21 -38 -9 -78 -18 -87 -20 -47 -10 -275
-83 -373 -120 -172 -65 -416 -184 -535 -259 -143 -91 -198 -129 -295 -201 -60
-46 -119 -91 -130 -102 -11 -10 -36 -31 -55 -47 -57 -46 -220 -207 -301 -297
-116 -128 -293 -361 -345 -454 -6 -11 -29 -49 -51 -85 -127 -207 -246 -477
-331 -750 -21 -67 -71 -265 -78 -310 -3 -14 -7 -36 -9 -50 -3 -14 -7 -43 -11
-65 -3 -22 -7 -47 -9 -55 -2 -8 -7 -42 -11 -75 -3 -33 -8 -67 -9 -77 -6 -32
-18 -254 -18 -348 0 -90 11 -318 18 -364 2 -11 6 -48 10 -81 27 -251 121 -604
235 -874 57 -137 178 -377 210 -418 11 -14 20 -29 20 -34 0 -12 114 -183 183
-274 460 -609 1093 -1042 1820 -1245 43 -12 86 -23 95 -25 9 -1 35 -8 57 -13
22 -6 54 -13 70 -16 17 -3 73 -12 125 -21 52 -9 118 -19 145 -23 70 -10 757
-9 830 1 216 30 441 80 623 138 241 78 530 211 737 341 91 57 241 159 283 193
296 237 519 468 715 743 224 315 402 694 506 1078 34 128 57 231 66 294 3 25
8 52 10 60 22 85 30 229 29 540 0 330 -3 373 -35 560 -222 1295 -1152 2339
-2410 2705 -126 37 -327 81 -411 91 -29 4 -55 8 -59 10 -3 1 -39 6 -80 9 -40
4 -85 9 -99 11 -28 6 -477 14 -482 9z"/>
</g>
</svg>
